<?xml version="1.0" encoding="utf-8"?>
<!-- Generator: Adobe Illustrator 22.0.0, SVG Export Plug-In . SVG Version: 6.00 Build 0)  -->
<svg version="1.1" id="图层_1" xmlns="http://www.w3.org/2000/svg" xmlns:xlink="http://www.w3.org/1999/xlink" x="0px" y="0px"
	 viewBox="0 0 417.2 200" style="enable-background:new 0 0 417.2 200;" xml:space="preserve">
<style type="text/css">
	.st0{fill:#FFFFFF;}
	.st1{fill:#E84845;}
</style>
<path class="st0" d="M68.7,31.5h-66v88.9H36V76h32.7V31.5z M77.3,76h33.3v44.4H77.3V76z M128.8,31.5h33.3v88.9h-33.3V31.5z
	 M180.3,76h33.3v44.4h-33.3V76z"/>
<path class="st1" d="M342.4,30.8l-38.8,89.6h36.7l38.4-89.6C378.7,30.8,342.4,30.8,342.4,30.8z M383.3,43.3l-18.7,39.9l14,37.2H416
	L383.3,43.3z"/>
<path class="st0" d="M298.5,31.5h-66v88.9h33.3V76h32.7V31.5z"/>
<path class="st0" d="M2.5,171.5h10.3v-34.8H2.5V171.5L2.5,171.5z M5.6,140.1h4.1v28.4H5.6V140.1z M19.9,151.6h7.5v-14.9H16v13.5
	l-2.4,10.1h2.8v13.3H28v-16.4h-9.6L19.9,151.6z M19.3,139.7h4.4v9.2h-4.4V139.7z M19.7,159.6h4.4v10.8h-4.4V159.6z M38,137.7l-0.1-2
	h-4l-0.1,1.9l-4.7,0.1v3.1h13.6v-3.1H38z M33.6,143.1h-3.3l0.7,7.7h3.5L33.6,143.1z"/>
<path class="st0" d="M41.9,143.1h-3.6l-1.7,9.3h-7.5v3.3h13.6v-3.3H40L41.9,143.1z M38.1,156.4h-3.7v6.3h-4.1v3.6h4.1v7.7h3.7v-7.7
	h3.7v-3.6h-3.7V156.4z M92,136.7H54.3v20.5h37.3L92,136.7z M72,154.7H57.9v-6.4H72V154.7z M72,145.7H57.9v-6.3H72V145.7z
	 M88.5,154.7H74.8v-6.4h13.7V154.7z M88.5,145.7H74.8v-6.3h13.7V145.7z M75.5,170.4v-5.1h16.1v-3.2H75.5v-3.7h-4v3.7H54.8v3.2h16.7
	v5.1h-18v3.2h39.6v-3.2H75.5z"/>
<path class="st0" d="M104.3,172h11.3v-35.3h-11.3V172z M107.9,140h4.7v28.5h-4.7V140L107.9,140z M124.4,136h-4.1v5.9h-2.8v3.6h2.8
	l0.1,9.5l-2.9,1.1v4.1l2.9-1.2v11.5h-2.9l1.5,3.6h5.5v-16.8l2.7-1.2v-3.6l-2.7,0.9v-7.9h2.7v-3.6h-2.7L124.4,136L124.4,136z
	 M138.3,138.1l0.7-2.1h-5l-1.5,2.1h-3.2V174h14.4v-35.9H138.3z M140.4,153.7v17.2h-8V156h6.7v-2.1h-6.7V141h8V153.7L140.4,153.7z"/>
<path class="st0" d="M317.7,163.7h4.1v-23.1h10.3v23.1h4v-26.4h-18.4V163.7z"/>
<path class="st0" d="M328.8,144.4h-4.4v21.5l-6.7,3.9v3.7l9.2-4.7v-0.1l9.2,4.8V170l-7.3-4.1L328.8,144.4z M343.7,146.3l-6.8,26.5
	h4.9l6.4-26.5H343.7z"/>
<path class="st0" d="M357.3,139.7h-1.6v-4h-4.5v4h-12.8v4h12.8v26.7h-6.3l2.1,3.5h8.7v-30.1h1.6L357.3,139.7L357.3,139.7z"/>
<path class="st0" d="M385.1,136.3l-15.6,0.7v3.7l15.6-0.9V136.3z M381.2,140.7h-4.5v5.1h-7.2v4.1h7.2v24h4.5v-13.1l4.7,3.9l-0.8-4.3
	l-3.9-3.5v-7.1h4.7v-4.1h-4.7L381.2,140.7L381.2,140.7z"/>
<path class="st0" d="M370.9,153.1h4.1v17.7h-4.1V153.1z M387.7,173.9l4-0.4l5.2-13.9h-3.6L387.7,173.9z"/>
<path class="st0" d="M409.5,165.9l-2.3,4.9h-2.7v-11.7h5.1v-19.9h-4.3l2-3.5h-4.5l-2,3.5h-3.6l-1.5-3.5h-4.9l2.1,3.5H388v19.9h12.8
	v14.5l8.8,0.4l2.3-5.6L409.5,165.9L409.5,165.9z M391.3,141.7h14.5V156h-14.5V141.7L391.3,141.7z"/>
<path class="st0" d="M164.9,151.9h2.1l6.3,2.5h2.8v-3.3l-8.1-2.3v-1.9h8.1V144H168v-4h7.6v-3.3H160l0.1-0.9h-4l-0.8,6h3.9l0.3-1.7
	h4.4v4h-8.5v2.9h8.5v1.6l-8.5,2.5v4.1L164.9,151.9z M178.4,136.7V154h15.9v-17.3H178.4L178.4,136.7z M190.8,150.9h-8.9v-11.5h8.9
	V150.9z M155.7,173.9h37.7v-18h-37.7V173.9L155.7,173.9z M159.7,166h28v-2.5h-28v-4.4H190v11.7h-30.3V166z"/>
<path class="st0" d="M219.2,138.4l1.7,3.3h-8.8l2.1-6h-4.1l-3.7,9.6h19.2l-2.1-6.9L219.2,138.4L219.2,138.4z M243.7,149.5h-10.4
	l-0.1-3.3l10.9-6.1v-3.3h-1.7l-9.1,5.6v-6.5H229v17.3h14.7L243.7,149.5L243.7,149.5z M244.5,156.9h-1.7l-9.1,5.6V156h-4.3v17.3h14.7
	v-3.5h-10.4l-0.1-3.5l10.9-6L244.5,156.9L244.5,156.9z M206.4,173.5h4v-7.6l10.5,0.1v-2.7H210v-5.5h9.9v-2H210v-4.9h11.6v19.5H216
	l1.5,3.1h7.6v-25.9h-18.7L206.4,173.5L206.4,173.5z"/>
<path class="st1" d="M271.3,154.8c0,3.8,3.1,6.9,6.9,6.9s6.9-3.1,6.9-6.9l0,0c0-3.8-3.1-6.9-6.9-6.9S271.3,151,271.3,154.8
	L271.3,154.8z"/>
</svg>
