<?xml version="1.0" encoding="UTF-8"?>
<svg width="16px" height="16px" viewBox="0 0 16 16" version="1.1" xmlns="http://www.w3.org/2000/svg" xmlns:xlink="http://www.w3.org/1999/xlink">
    <!-- Generator: Sketch 52.4 (67378) - http://www.bohemiancoding.com/sketch -->
    <title>账户中心_fill</title>
    <desc>Created with Sketch.</desc>
    <g id="页面-1" stroke="none" stroke-width="1" fill="none" fill-rule="evenodd">
        <g id="4-发起充值" transform="translate(-28.000000, -680.000000)" fill="#FFFFFF" fill-rule="nonzero">
            <g id="分组-10" transform="translate(-3.000000, 0.000000)">
                <g id="分组-8" transform="translate(31.000000, 30.000000)">
                    <g id="账户中心_fill" transform="translate(0.000000, 650.000000)">
                        <path d="M15.9886525,6.54751774 L10.1787234,6.54751774 C9.37985816,6.54751774 8.72624114,7.20113476 8.72624114,8 L8.72624114,10.9049645 C8.72624114,11.7038298 9.37985816,12.3574468 10.1787234,12.3574468 L15.9886525,12.3574468 L15.9886525,13.0836879 C15.9886525,14.6814185 14.6814184,15.9886525 13.0836879,15.9886525 L2.91631205,15.9886525 C1.31858155,15.9886525 0.0113475064,14.6814184 0.0113475234,13.0836879 L0.0113475234,5.09503546 C0.0113475234,3.86042553 0.955461004,2.91631205 2.19007093,2.91631205 L13.8099291,2.91631205 C15.044539,2.91631205 15.9886525,3.86042553 15.9886525,5.09503546 L15.9886525,6.54751774 Z M11.5585816,2.19007093 L2.19007093,2.19007093 C1.31858157,2.19007093 0.519716323,2.55319149 0.0113475234,3.20680851 L0.0113475234,2.91631205 C0.0113475234,1.31858155 1.31858157,0.0113475064 2.91631205,0.0113475234 L8.72624114,0.0113475234 C10.1060993,0.0113475234 11.195461,0.955461004 11.5585816,2.19007093 Z M10.1787234,7.27375886 L15.9886525,7.27375886 L15.9886525,11.6312057 L10.1787234,11.6312057 C9.74297872,11.6312057 9.45248226,11.3407092 9.45248226,10.9049645 L9.45248226,8 C9.45248226,7.56425532 9.74297872,7.27375886 10.1787234,7.27375886 Z M11.6312057,8.72624114 C11.195461,8.72624114 10.9049645,9.0167376 10.9049645,9.45248226 C10.9049646,9.88822693 11.195461,10.1787234 11.6312057,10.1787234 C12.0669503,10.1787234 12.3574468,9.88822694 12.3574468,9.45248226 C12.3574468,9.01673758 12.0669503,8.72624112 11.6312057,8.72624114 Z" id="形状"></path>
                    </g>
                </g>
            </g>
        </g>
    </g>
</svg>