<?xml version="1.0" encoding="UTF-8"?>
<svg width="18px" height="18px" viewBox="0 0 18 18" version="1.1" xmlns="http://www.w3.org/2000/svg" xmlns:xlink="http://www.w3.org/1999/xlink">
    <!-- Generator: Sketch 52.4 (67378) - http://www.bohemiancoding.com/sketch -->
    <title>工作台</title>
    <desc>Created with Sketch.</desc>
    <g id="页面-1" stroke="none" stroke-width="1" fill="none" fill-rule="evenodd">
        <g id="现金账户明细表-退款明细表" transform="translate(-52.000000, -896.000000)" fill="#FFFFFF" fill-rule="nonzero">
            <g id="工作台" transform="translate(52.000000, 896.000000)">
                <path d="M12.9692262,8.9766184 C12.5719855,8.9766184 12.1544775,8.80437238 11.8079053,8.45785391 C10.9039802,7.55406892 9.99194807,6.66041604 9.10018335,5.7444725 C8.40501222,5.03117134 8.36245072,4.05646151 9.04748816,3.32897538 C9.95749352,2.36237124 10.9019534,1.42413704 11.8687074,0.512246352 C12.5638786,-0.142288523 13.4596968,-0.180790574 14.1609481,0.461585758 C15.1783706,1.39374069 16.157285,2.37250336 17.0895845,3.38774167 C17.7340872,4.08888429 17.6996326,4.98456359 17.0429695,5.68165336 C16.1329642,6.6482575 15.1763438,7.57230673 14.2298572,8.50648808 C13.9116593,8.82261019 13.5103652,8.9685127 12.9692262,8.9766184 Z M0.308193967,4.46985195 C0.308193967,3.83152847 0.302113753,3.19117856 0.310220705,2.55285508 C0.322381133,1.62070015 0.985124455,0.872949781 1.90323676,0.848632696 C3.26723143,0.812157068 4.63122609,0.816209916 5.99522076,0.846606272 C6.86671809,0.86687051 7.54770205,1.50519399 7.60242398,2.37047694 C7.69362719,3.7828943 7.68552024,5.20139093 7.60850419,6.61380829 C7.55783574,7.53177825 6.85253092,8.16402247 5.92631167,8.17820743 C4.61501219,8.2004981 3.30168597,8.20455094 1.98835976,8.17618101 C1.00539183,8.15591677 0.324407871,7.42640422 0.310220705,6.43750942 C0.300087015,5.78094813 0.308193967,5.12438683 0.308193967,4.46985195 Z M13.0888037,17.2424009 C12.4321406,17.2424009 11.7775042,17.2505066 11.1208411,17.2403745 C10.1115256,17.2261895 9.39000688,16.5270733 9.37379298,15.5158879 C9.35555234,14.2210031 9.3535256,12.9261183 9.37379298,11.6312335 C9.38798015,10.6848936 10.0324828,9.97159246 10.9830229,9.93916968 C12.3612048,9.89053551 13.7454668,9.89256193 15.1236486,9.94524895 C16.0660818,9.98172458 16.7024775,10.701105 16.714638,11.6494713 C16.7328786,12.9443561 16.7349053,14.2392409 16.714638,15.5341257 C16.6984241,16.5392319 15.9708251,17.2282159 14.9534027,17.2403745 C14.3332208,17.2484802 13.7110123,17.2424009 13.0888037,17.2424009 Z M0.308193967,13.598891 C0.308193967,12.9423297 0.300087015,12.2877948 0.310220705,11.6312335 C0.324407871,10.701105 0.922295577,10.0019888 1.85864853,9.94727538 C3.26925817,9.864192 4.68797476,9.86216558 6.09858439,9.95132822 C6.94576087,10.0040152 7.54162184,10.6038367 7.60039724,11.4529082 C7.69565393,12.8632992 7.68754698,14.2817958 7.60647746,15.6921867 C7.55175553,16.6263681 6.85253092,17.2322688 5.92225819,17.2403745 C4.61095871,17.252533 3.2976325,17.2545595 1.98633302,17.2383481 C1.03376617,17.2261895 0.332514823,16.5169412 0.312247443,15.5665485 C0.298060277,14.9099872 0.308193967,14.2554523 0.308193967,13.598891 Z" id="形状"></path>
            </g>
        </g>
    </g>
</svg>