<?xml version="1.0" encoding="UTF-8"?>
<svg width="185px" height="150px" viewBox="0 0 185 150" version="1.1" xmlns="http://www.w3.org/2000/svg" xmlns:xlink="http://www.w3.org/1999/xlink">
    <!-- Generator: Sketch 52.4 (67378) - http://www.bohemiancoding.com/sketch -->
    <title>系统设置</title>
    <desc>Created with Sketch.</desc>
    <g id="Page-1" stroke="none" stroke-width="1" fill="none" fill-rule="evenodd">
        <g id="外勤" transform="translate(-86.000000, -683.000000)" fill="#FFFFFF">
            <g id="系统设置" transform="translate(86.000000, 683.000000)">
                <path d="M82.6367187,129.492188 L87.4414062,122.753906 L89.53125,119.824219 L85.9765625,119.238281 L77.8125,117.871094 L77.8125,83.0664063 L85.9765625,81.6992188 L89.53125,81.1132813 L87.4414062,78.1835938 L82.6367187,71.4453125 L88.4960937,65.6054688 L101.40625,52.6953125 L107.246094,46.8554688 L113.984375,51.6601563 L116.914062,53.75 L117.5,50.2148438 L118.867187,42.0507813 L153.671875,42.0507813 L155.039062,50.2148438 L155.625,53.7695313 L158.554688,51.6796875 L165.292969,46.875 L169.53125,51.1132813 L169.53125,5.8203125 C169.53125,2.6171875 166.914062,0 163.710938,0 L5.8203125,0 C2.6171875,0 0,2.6171875 0,5.8203125 L0,109.160156 C0,112.363281 2.6171875,114.980469 5.8203125,114.980469 L67.8515625,114.980469 L67.8515625,127.011719 L51.6210937,127.011719 C48.3984375,127.011719 45.7617187,129.648438 45.7617187,132.871094 C45.7617187,136.09375 48.3984375,138.730469 51.6210937,138.730469 L91.875,138.730469 L88.4765625,135.332031 L82.6367187,129.492188 Z" id="路径"></path>
                <path d="M170.398438,89.2070312 C169.832031,87.4882812 169.148438,85.828125 168.328125,84.2265625 L176.550781,72.7226562 L163.640625,59.8125 L152.15625,68.015625 C150.554688,67.1953125 148.875,66.5117188 147.136719,65.9453125 L144.8125,52 L126.550781,52 L124.226562,65.9257812 C122.488281,66.4921875 120.828125,67.1953125 119.207031,67.9960938 L107.722656,59.7929687 L94.8125,72.703125 L103.015625,84.2070312 C102.214844,85.8085938 101.53125,87.46875 100.964844,89.2070312 L87,91.5507812 L87,109.8125 L100.984375,112.136719 C101.550781,113.855469 102.234375,115.496094 103.035156,117.078125 L94.8125,128.621094 L107.722656,141.53125 L119.285156,133.269531 C120.867188,134.070312 122.507813,134.753906 124.207031,135.300781 L126.550781,149.324219 L144.8125,149.324219 L147.15625,135.300781 C148.855469,134.734375 150.496094,134.070312 152.078125,133.269531 L163.640625,141.53125 L176.550781,128.621094 L168.308594,117.078125 C169.109375,115.496094 169.792969,113.835937 170.359375,112.136719 L184.34375,109.792969 L184.34375,91.53125 L170.398438,89.2070312 Z M135.671875,115.203125 C127.644531,115.203125 121.140625,108.699219 121.140625,100.671875 C121.140625,92.6445312 127.644531,86.140625 135.671875,86.140625 C143.699219,86.140625 150.203125,92.6445312 150.203125,100.671875 C150.203125,108.699219 143.699219,115.203125 135.671875,115.203125 Z" id="形状" fill-rule="nonzero"></path>
            </g>
        </g>
    </g>
</svg>