<?xml version="1.0" encoding="UTF-8"?>
<svg width="16px" height="20px" viewBox="0 0 16 20" version="1.1" xmlns="http://www.w3.org/2000/svg" xmlns:xlink="http://www.w3.org/1999/xlink">
    <!-- Generator: Sketch 52.4 (67378) - http://www.bohemiancoding.com/sketch -->
    <title>发票导入</title>
    <desc>Created with Sketch.</desc>
    <g id="页面-1" stroke="none" stroke-width="1" fill="none" fill-rule="evenodd">
        <g id="绑定银行卡-成功-copy" transform="translate(-51.000000, -948.000000)" fill="#FFFFFF">
            <g id="发票导入" transform="translate(51.000000, 948.000000)">
                <path d="M7.25069087,3.34611364 L8.76440896,3.34611364 L8.76440896,4.13484042 L7.25069087,4.13484042 L7.25069087,3.34611364 Z M7.25069087,4.62082357 L8.76440896,4.62082357 L8.76440896,5.6963601 L7.25069087,5.6963601 L7.25069087,4.62082357 Z M9.40176393,4.62082357 L10.915482,4.62082357 L10.915482,5.6963601 L9.40176393,5.6963601 L9.40176393,4.62082357 Z" id="形状" fill-rule="nonzero"></path>
                <path d="M14.7396119,12.8267689 L15.9346524,12.8267689 L15.9346524,1.4340487 C15.9346524,0.642045471 15.292607,4.84962107e-17 14.5006037,0 L1.83317357,0 C0.821169454,-6.19673802e-17 0.000778021523,0.820391432 0.000778021523,1.83239555 L0.000778021523,12.8267689 L1.19581861,12.8267689 C1.4158195,12.8267689 1.59416546,13.0051149 1.59416546,13.2251158 L1.59416546,13.7828014 C1.59745969,14.0185813 1.42832729,14.2215401 1.19581861,14.2608176 L0.000778021523,14.2608176 L0.000778021523,18.0849475 C0.000778021523,19.0969516 0.821169454,19.917343 1.83317357,19.917343 L2.94854478,19.917343 C3.31541124,19.9196139 3.62481244,19.6445906 3.66556914,19.2799881 C4.09837232,17.2216075 5.86670627,15.715249 7.96771523,15.6151969 C10.0687242,15.715249 11.8370581,17.2216075 12.2698613,19.2799881 C12.310618,19.6445906 12.6200192,19.9196139 12.9868857,19.917343 L14.1022569,19.917343 C15.114261,19.917343 15.9346524,19.0969516 15.9346524,18.0849475 L15.9346524,14.2608176 L14.7396119,14.2608176 C14.5071032,14.2215401 14.3379708,14.0185813 14.341265,13.7828014 L14.341265,13.2251158 C14.341265,13.0051149 14.519611,12.8267689 14.7396119,12.8267689 Z M4.14358537,2.86809739 L11.9511838,2.86809739 L11.9511838,3.34611364 L9.40176393,3.34611364 L9.40176393,4.14280735 L11.4731676,4.14280735 L11.4731676,6.53288851 L10.915482,6.53288851 L10.915482,6.21421103 L5.17928721,6.21421103 L5.17928721,6.53288851 L4.54193222,6.53288851 L4.54193222,4.14280735 L6.69300528,4.14280735 L6.69300528,3.34611364 L4.14358537,3.34611364 L4.14358537,2.86809739 Z M11.4731676,6.851566 L11.4731676,7.40925161 L4.54193222,7.40925161 L4.54193222,6.851566 L11.4731676,6.851566 Z M5.41829532,13.7828014 C5.42158955,14.0185813 5.25245716,14.2215401 5.01994847,14.2608176 L3.02821416,14.2608176 C2.90143637,14.2608176 2.77985107,14.2104553 2.69020563,14.1208099 C2.6005602,14.0311645 2.55019792,13.9095792 2.55019793,13.7828014 L2.55019793,13.2251158 C2.5894754,12.9926071 2.79243427,12.8234747 3.02821416,12.8267689 L5.01994847,12.8267689 C5.23994936,12.8267689 5.41829532,13.0051149 5.41829532,13.2251158 L5.41829532,13.7828014 Z M3.82490788,10.1180103 C4.65673574,9.73157569 5.45602346,9.27864598 6.21498905,8.76363094 L6.61333591,9.24164716 L4.22325474,10.6756959 L3.82490788,10.1180103 Z M6.21498905,10.0383409 L7.25069087,10.0383409 C7.40569091,10.0673042 7.56500315,10.0179648 7.67650177,9.90646618 C7.78800039,9.79496756 7.8373398,9.63565531 7.80837649,9.48065528 L7.80837649,8.60429218 L3.98424663,8.60429218 L3.98424663,8.04660658 L12.1105226,8.04660658 L12.1105226,8.60429218 L8.44573146,8.60429218 L8.44573146,9.71966339 C8.44573146,10.3570184 8.12705397,10.6756959 7.41002964,10.6756959 L6.37432779,10.6756959 C6.29465842,10.5163571 6.29465842,10.277349 6.21498905,10.0383409 Z M12.0308532,10.0383409 L11.6325064,10.6756959 L9.24242519,9.32131654 L9.56110267,8.84330031 L12.0308532,10.0383409 Z M9.40176393,13.7828014 C9.40505815,14.0185813 9.23592576,14.2215401 9.00341707,14.2608176 L7.01168276,14.2608176 C6.88490497,14.2608176 6.76331967,14.2104553 6.67367424,14.1208099 C6.58402881,14.0311645 6.53366653,13.9095792 6.53366654,13.7828014 L6.53366654,13.2251158 C6.57294401,12.9926071 6.77590287,12.8234747 7.01168276,12.8267689 L9.00341707,12.8267689 C9.22341797,12.8267689 9.40176393,13.0051149 9.40176393,13.2251158 L9.40176393,13.7828014 Z M13.3852325,13.7828014 C13.3852325,13.9095792 13.3348703,14.0311645 13.2452248,14.1208099 C13.1555794,14.2104553 13.0339941,14.2608176 12.9072163,14.2608176 L10.915482,14.2608176 C10.6829733,14.2215401 10.5138409,14.0185813 10.5171351,13.7828014 L10.5171351,13.2251158 C10.5171351,13.0051149 10.6954811,12.8267689 10.915482,12.8267689 L12.9072163,12.8267689 C13.1429962,12.8234747 13.3459551,12.9926071 13.3852325,13.2251158 L13.3852325,13.7828014 Z" id="形状" fill-rule="nonzero"></path>
                <polygon id="路径" points="5.17928721 4.62082357 6.69300528 4.62082357 6.69300528 5.6963601 5.17928721 5.6963601"></polygon>
            </g>
        </g>
    </g>
</svg>