<?xml version="1.0" encoding="UTF-8"?>
<svg width="14px" height="17px" viewBox="0 0 14 17" version="1.1" xmlns="http://www.w3.org/2000/svg" xmlns:xlink="http://www.w3.org/1999/xlink">
    <!-- Generator: Sketch 52.4 (67378) - http://www.bohemiancoding.com/sketch -->
    <title>规则</title>
    <desc>Created with Sketch.</desc>
    <g id="页面-1" stroke="none" stroke-width="1" fill="none" fill-rule="evenodd">
        <g id="代理商详情页" transform="translate(-211.000000, -516.000000)" fill="#FFFFFF" fill-rule="nonzero">
            <g id="规则" transform="translate(211.000000, 516.000000)">
                <path d="M12.5065534,16.6674757 L1.4934466,16.6674757 C0.671116505,16.6674757 0.00509708738,16.0014563 0.00509708738,15.1791262 L0.00509708738,1.48834951 C0.00509708738,0.666019417 0.671116505,0 1.4934466,0 L2.98179612,0 L2.98179612,5.2092233 C2.98179612,5.37402913 3.04805825,5.52184466 3.15679612,5.63058252 L4.76747573,4.01990291 L6.37815534,5.63058252 C6.48519417,5.52354369 6.55315534,5.37402913 6.55315534,5.2092233 L6.55315534,0 L12.5065534,0 C13.3288835,0 13.9949029,0.666019417 13.9949029,1.48834951 L13.9949029,15.1791262 C13.9949029,16.0014563 13.3288835,16.6674757 12.5065534,16.6674757 Z M10.7208738,8.78058252 L3.57645631,8.78058252 C3.16529126,8.78058252 2.83228155,9.11359223 2.83228155,9.52475728 C2.83228155,9.93592233 3.16529126,10.268932 3.57645631,10.268932 L10.7208738,10.268932 C11.1320388,10.268932 11.4650485,9.93592233 11.4650485,9.52475728 C11.4650485,9.11359223 11.1320388,8.78058252 10.7208738,8.78058252 Z M10.7208738,12.3519417 L3.57645631,12.3519417 C3.16529126,12.3519417 2.83228155,12.6849515 2.83228155,13.0961165 C2.83228155,13.5072816 3.16529126,13.8402913 3.57645631,13.8402913 L10.7208738,13.8402913 C11.1320388,13.8402913 11.4650485,13.5072816 11.4650485,13.0961165 C11.4650485,12.6849515 11.1320388,12.3519417 10.7208738,12.3519417 Z" id="形状"></path>
            </g>
        </g>
    </g>
</svg>